<svg width="111" height="106" viewBox="0 0 111 106" fill="none" xmlns="http://www.w3.org/2000/svg">
<path d="M24.3308 82.096C22.0268 71.92 20.8748 63.088 20.8748 55.6C20.8748 44.848 23.3708 36.784 28.3628 31.408C33.3548 25.84 40.6508 23.056 50.2508 23.056V34.576C45.2588 34.576 41.6108 35.92 39.3068 38.608C37.1948 41.296 36.1388 45.328 36.1388 50.704V57.328H50.5388V82.096H24.3308ZM63.2108 82.096C60.9068 71.92 59.7548 63.088 59.7548 55.6C59.7548 44.848 62.2508 36.784 67.2428 31.408C72.2348 25.84 79.5308 23.056 89.1308 23.056V34.576C84.1388 34.576 80.4908 35.92 78.1868 38.608C76.0748 41.296 75.0188 45.328 75.0188 50.704V57.328H89.4188V82.096H63.2108Z" fill="#6552FF"/>
</svg>
